<?xml version="1.0" encoding="UTF-8"?>
<svg version="1.1" xmlns="http://www.w3.org/2000/svg" width="2570" height="1094">
<path d="M0 0 C33.66 0 67.32 0 102 0 C113.48348497 17.22522745 113.48348497 17.22522745 117.19921875 22.890625 C117.63260056 23.55042862 118.06598236 24.21023224 118.51249695 24.89002991 C119.90463461 27.00971176 121.29606533 29.12985663 122.6875 31.25 C123.69151292 32.77892681 124.6955833 34.30781588 125.69970703 35.83666992 C127.77480423 38.99627002 129.84966036 42.15602819 131.92431641 45.31591797 C136.73934231 52.64933972 141.55714727 59.98093523 146.375 67.3125 C146.84497406 68.02772827 147.31494812 68.74295654 147.79916382 69.4798584 C155.88900327 81.7912407 163.98487249 94.0986496 172.0824585 106.40493774 C180.03173311 118.48596329 187.976067 130.57022328 195.91699219 142.65673828 C204.48573433 155.69856433 213.06141876 168.73581358 221.63989258 181.77124023 C226.83023927 189.65873654 232.01780509 197.54803831 237.19921875 205.44140625 C238.21614061 206.9902378 239.23306763 208.53906597 240.25 210.08789062 C242.12190047 212.93892489 243.99288677 215.79055572 245.86328125 218.64257812 C253.18800286 229.79911305 260.59623123 240.89434684 268 252 C268.33 168.84 268.66 85.68 269 0 C302.66 0 336.32 0 371 0 C371 136.95 371 273.9 371 415 C337.34 415 303.68 415 269 415 C257.54511971 397.81767956 257.54511971 397.81767956 252.03125 389.4375 C251.42543091 388.51767334 250.81961182 387.59784668 250.19543457 386.65014648 C247.66140629 382.80265531 245.12834978 378.95452469 242.59521484 375.10644531 C236.34333215 365.61028148 230.08968891 356.11594475 223.77252197 346.66305542 C218.51255933 338.78432729 213.31622578 330.86352415 208.10900879 322.94989014 C198.53167011 308.39647343 188.93043166 293.86006647 179.25 279.375 C172.43712641 269.17875597 165.67321367 258.95356759 158.97729492 248.67993164 C151.70840149 237.53372594 144.38562879 226.42312502 137.0625 215.3125 C136.43971161 214.36724457 135.81692322 213.42198914 135.17526245 212.4480896 C127.81499902 201.27743021 120.43037201 190.12415365 113 179 C109.7 174.05 106.4 169.1 103 164 C102.67 246.83 102.34 329.66 102 415 C68.34 415 34.68 415 0 415 C0 278.05 0 141.1 0 0 Z " fill="#2BA8E0" transform="translate(174,401)"/>
<path d="M0 0 C38.94 0 77.88 0 118 0 C140.60416667 62.16145833 140.60416667 62.16145833 147.765625 82.0690918 C150.02877623 88.3594526 152.29520056 94.64863341 154.5625 100.9375 C154.79146973 101.57262009 155.02043945 102.20774017 155.25634766 102.86210632 C160.14423266 116.41778155 165.06897082 129.95997023 170 143.5 C177.09670652 162.98773375 184.15603862 182.48865487 191.1875 202 C191.4196307 202.64412086 191.6517614 203.28824173 191.89092636 203.95188141 C193.05150389 207.17232396 194.21202831 210.39278565 195.37254333 213.61325073 C195.59908537 214.24190914 195.8256274 214.87056755 196.05903435 215.51827621 C196.513651 216.77986156 196.96825741 218.0414506 197.42285347 219.30304337 C201.87693339 231.66367017 206.3419838 244.02030947 210.8125 256.375 C211.15453461 257.32028564 211.49656921 258.26557129 211.84896851 259.23950195 C213.55099166 263.94326037 215.25322333 268.64694329 216.95556641 273.35058594 C219.75969566 281.09881568 222.56221805 288.84762654 225.36474609 296.59643555 C226.78280428 300.51725667 228.2011101 304.43798808 229.61962891 308.35864258 C232.83727585 317.25237116 236.05367253 326.14654305 239.26423645 335.04283142 C240.71343394 339.05825238 242.16340671 343.07339312 243.61355591 347.08847046 C244.32516198 349.05909211 245.03648953 351.02981437 245.74752808 353.00064087 C249.5133995 363.43663478 253.30626711 373.86120173 257.1796875 384.2578125 C257.5109816 385.14881149 257.8422757 386.03981049 258.18360901 386.95780945 C259.74327534 391.15156275 261.30912321 395.34277488 262.88745117 399.52954102 C263.4369434 401.00267101 263.98619327 402.47589145 264.53515625 403.94921875 C264.78735931 404.61039703 265.03956238 405.27157532 265.29940796 405.95278931 C266.51519927 409.2365034 267 411.43030496 267 415 C231.69 415 196.38 415 160 415 C150.56459752 391.4114938 143.15029475 367.06277498 135 343 C58.77 342.505 58.77 342.505 -19 342 C-19.66 344.97 -20.32 347.94 -21 351 C-21.67450116 353.2390835 -22.38621583 355.46737544 -23.13891602 357.68139648 C-23.55597305 358.91554794 -23.97303009 360.1496994 -24.40272522 361.42124939 C-24.85297473 362.73791348 -25.30337183 364.05452712 -25.75390625 365.37109375 C-26.2198481 366.74336884 -26.68541272 368.11577206 -27.15061951 369.48829651 C-28.12025802 372.3459632 -29.09293171 375.20257049 -30.06811523 378.05834961 C-31.31878924 381.72100852 -32.56402826 385.38548524 -33.80731297 389.05065823 C-34.99595778 392.55394532 -36.18735705 396.05629368 -37.37890625 399.55859375 C-37.6057416 400.22614622 -37.83257694 400.89369869 -38.06628609 401.58148003 C-38.70615311 403.46296294 -39.34826075 405.34368341 -39.99047852 407.22436523 C-40.5376931 408.82911964 -40.5376931 408.82911964 -41.09596252 410.46629333 C-42 413 -42 413 -43 415 C-78.31 415 -113.62 415 -150 415 C-145.31522798 400.94568394 -140.63676788 386.97082565 -135.53201294 373.07650757 C-134.15734912 369.33468209 -132.79060961 365.58997294 -131.42308044 361.84553528 C-130.70224202 359.87207769 -129.98101871 357.89876065 -129.25941467 355.92558289 C-125.33383919 345.18917 -121.44723112 334.43874377 -117.5625 323.6875 C-116.84810179 321.71124905 -116.13366479 319.73501213 -115.41918945 317.75878906 C-113.98712554 313.79759077 -112.55525044 309.83632431 -111.12353516 305.875 C-107.66712478 296.31198119 -104.20858485 286.74973256 -100.75 277.1875 C-100.40591095 276.23612152 -100.0618219 275.28474304 -99.70730591 274.30453491 C-93.19309618 256.29354812 -86.67268 238.28481052 -80.15161133 220.27630615 C-72.11610655 198.08531672 -64.08670565 175.8921251 -56.06054688 153.69775391 C-53.96245903 147.89607948 -51.86407595 142.09451185 -49.765625 136.29296875 C-49.4141037 135.32110626 -49.0625824 134.34924377 -48.70040894 133.34793091 C-46.92363537 128.43567458 -45.14673789 123.52346312 -43.36962891 118.61132812 C-40.19905809 109.84713015 -37.02926946 101.08265429 -33.86407471 92.31651306 C-26.20555274 71.10599889 -18.5220034 49.9047966 -10.78973389 28.72103882 C-9.93361367 26.37548983 -9.07785688 24.02980815 -8.22247314 21.68399048 C-7.03499917 18.42818549 -5.84589937 15.17297939 -4.65625 11.91796875 C-4.29981415 10.94016449 -3.9433783 9.96236023 -3.57614136 8.95492554 C-3.25001862 8.06383087 -2.92389587 7.17273621 -2.58789062 6.25463867 C-2.30385376 5.47706711 -2.01981689 4.69949554 -1.72717285 3.89836121 C-1 2 -1 2 0 0 Z M58 115 C54.78595668 122.71569384 52.05263174 130.55136789 49.41503906 138.48022461 C48.97134651 139.80694523 48.52740522 141.13358269 48.08323669 142.46014404 C46.88852093 146.031009 45.69758326 149.60312268 44.50761509 153.17557216 C43.5119806 156.16355088 42.51455355 159.15092997 41.51716304 162.13832289 C39.16606326 169.18056828 36.81813147 176.22386433 34.47216797 183.26782227 C32.0522749 190.53356331 29.62684954 197.79744099 27.19876885 205.06044954 C25.11053826 211.30755008 23.02577766 217.55580113 20.94380164 223.80498892 C19.70173366 227.53300694 18.45833014 231.26056598 17.21155548 234.98701286 C16.04199576 238.48315579 14.87676465 241.98071129 13.71489143 245.47941589 C13.08337779 247.37746338 12.44740868 249.27402662 11.81132507 251.17054749 C11.43846878 252.29613068 11.06561249 253.42171387 10.68145752 254.58140564 C10.35480732 255.5611885 10.02815712 256.54097136 9.69160843 257.5504446 C8.86414106 260.0569688 8.86414106 260.0569688 9 263 C42 263 75 263 109 263 C98.79466045 232.37887495 98.79466045 232.37887495 88.53125 201.77734375 C87.79568999 199.59070501 87.06013511 197.40406454 86.32458496 195.21742249 C84.81279928 190.72367755 83.30057658 186.23007997 81.78808594 181.73657227 C79.85941328 176.00631417 77.93248649 170.2754705 76.00592804 164.5445013 C74.50034345 160.06677526 72.99355479 155.58945507 71.48643494 151.11224556 C70.77477799 148.9974698 70.06355509 146.88254792 69.35279846 144.76746941 C64.35037679 129.82263777 64.35037679 129.82263777 59 115 C58.67 115 58.34 115 58 115 Z " fill="#2BA8E0" transform="translate(2157,401)"/>
<path d="M0 0 C33.66 0 67.32 0 102 0 C102.029729 11.61340576 102.029729 11.61340576 102.06005859 23.46142578 C102.12494857 48.27034895 102.19948658 73.0792342 102.28005161 97.88811112 C102.29256958 101.74555692 102.3050025 105.60300298 102.31738281 109.46044922 C102.31984881 110.22835548 102.3223148 110.99626175 102.32485552 111.7874379 C102.36451423 124.20016557 102.39729195 136.61290226 102.42749982 149.02565612 C102.4586799 161.77455063 102.49731702 174.52340703 102.54279006 187.27225864 C102.57058762 195.13076746 102.59265822 202.98924861 102.60726251 210.84779321 C102.61911062 216.88687725 102.64136393 222.92587861 102.66738319 228.96492004 C102.67641508 231.43269223 102.68213889 233.90047922 102.68421364 236.36826706 C102.70984294 262.23372212 104.32851274 287.69044131 123.1015625 307.421875 C138.99579599 321.5596029 160.3700321 325.01849631 181 324 C198.4690357 322.62798503 216.27377052 316.92720738 228.24609375 303.4765625 C240.66306292 287.31900904 245.13832874 269.26517261 245.15821838 249.1673584 C245.16315636 248.09879939 245.16809434 247.03024037 245.17318195 245.92930079 C245.18849797 242.36107182 245.19690157 238.79286077 245.20532227 235.22460938 C245.21490542 232.66188399 245.22491576 230.09916017 245.23532104 227.53643799 C245.25673793 222.02537055 245.27519128 216.51430596 245.29092598 211.0032196 C245.3136806 203.03520813 245.34181552 195.06722273 245.37124526 187.09923345 C245.4188528 174.17033384 245.46213541 161.24142353 245.50268555 148.3125 C245.54207533 135.75650196 245.58350986 123.2005134 245.62768555 110.64453125 C245.63177196 109.48275566 245.63177196 109.48275566 245.63594092 108.29750985 C245.64962097 104.41181628 245.66334113 100.52612285 245.67708123 96.6404295 C245.79093854 64.42697165 245.89697247 32.21349476 246 0 C279.66 0 313.32 0 348 0 C348.04418747 32.76500889 348.08107847 65.52998858 348.10213066 98.29501836 C348.10463172 102.1734856 348.1072204 106.05195278 348.10986328 109.93041992 C348.11065021 111.0884969 348.11065021 111.0884969 348.11145304 112.26996938 C348.120128 124.72972195 348.13588174 137.18945583 348.15430559 149.64919736 C348.17308596 162.45798816 348.18413382 175.26676926 348.18817699 188.07557327 C348.19090527 195.96326148 348.19948507 203.85089688 348.21583293 211.73856882 C348.22777146 217.81251076 348.22889102 223.8864084 348.22621536 229.96036339 C348.22676069 232.43327151 348.2306726 234.90618184 348.23841095 237.37907791 C348.36694413 280.61413177 341.78450899 322.27960879 314 357 C313.52949219 357.58861816 313.05898437 358.17723633 312.57421875 358.78369141 C284.07331397 394.00562089 242.47532224 412.80041742 198 418 C150.05044046 423.01444337 97.26360501 415.1019294 58.58984375 384.3359375 C55.30879692 381.64953872 52.1368569 378.85263456 49 376 C48.13761719 375.22140625 47.27523437 374.4428125 46.38671875 373.640625 C14.12560376 342.97455717 1.53118073 298.27540338 0 255 C-0.17154509 246.55526028 -0.12692255 238.10787259 -0.11352539 229.66186523 C-0.11324279 227.14707439 -0.11340268 224.63228347 -0.1139679 222.11749268 C-0.11419422 216.73753171 -0.11139306 211.35758644 -0.10573006 205.97762871 C-0.09754805 198.19944208 -0.09499303 190.42126129 -0.09374207 182.64307082 C-0.09156199 170.01863566 -0.08493042 157.39420702 -0.07543945 144.76977539 C-0.06623818 132.51782259 -0.05917068 120.26587158 -0.05493164 108.01391602 C-0.05466892 107.25669844 -0.05440619 106.49948087 -0.05413551 105.71931731 C-0.05283032 101.91997994 -0.05156665 98.12064255 -0.05032361 94.32130516 C-0.03998356 62.88086432 -0.02156295 31.44043564 0 0 Z " fill="#2BA8E0" transform="translate(963,401)"/>
<path d="M0 0 C15.24659521 -0.25733186 30.49309015 -0.45111611 45.74137115 -0.56993389 C52.82213571 -0.6265791 59.90154862 -0.70375252 66.98144531 -0.82983398 C73.81559512 -0.95148074 80.64834087 -1.01514634 87.48350525 -1.04364967 C90.08957508 -1.0639582 92.69556898 -1.10361875 95.30104065 -1.16303062 C115.65574617 -1.60866741 115.65574617 -1.60866741 121.20281982 2.1978302 C123.3228891 5.05069654 124.65136092 7.72104909 126 11 C127.00691627 12.56359877 128.04786757 14.10594933 129.12597656 15.62133789 C130.13352072 17.15336374 131.13832192 18.6871964 132.140625 20.22265625 C132.69697632 21.0696962 133.25332764 21.91673615 133.82653809 22.78944397 C135.01791566 24.60363107 136.20815742 26.4185645 137.39733887 28.23419189 C140.60266482 33.12750412 143.81699091 38.0148965 147.03125 42.90234375 C147.69074646 43.90543579 148.35024292 44.90852783 149.02972412 45.9420166 C155.88968594 56.36761892 162.81628306 66.74836764 169.75 77.125 C179.92565399 92.35733318 190.02867726 107.63299649 200 123 C202.88402396 119.55123895 205.22994714 116.07583543 207.43359375 112.16015625 C208.07570801 111.02610352 208.71782227 109.89205078 209.37939453 108.72363281 C209.71473206 108.12699829 210.05006958 107.53036377 210.39556885 106.91564941 C212.17720998 103.74687266 213.97389823 100.58664372 215.76953125 97.42578125 C216.13012634 96.79034393 216.49072144 96.15490662 216.86224365 95.50021362 C220.05602018 89.88076229 223.32329078 84.30672275 226.625 78.75 C231.03095967 71.33022037 235.40745142 63.89459395 239.75 56.4375 C244.73002547 47.88975811 249.71639736 39.34579631 254.71618652 30.80960083 C255.42994611 29.59076157 256.14342115 28.37175561 256.85656738 27.15255737 C258.50426867 24.33586816 260.16184072 21.53272353 261.87869263 18.75733948 C263.37115482 16.25486384 264.47636478 13.83459169 265.44668579 11.09008789 C267.19168092 6.66564557 269.12186966 2.89376156 273 0 C281.28313374 -2.79690805 290.65398631 -1.73751864 299.25390625 -1.46484375 C301.84172915 -1.43684717 304.42963186 -1.41550452 307.01756287 -1.40052795 C313.1180425 -1.34923073 319.21383385 -1.23122357 325.31255239 -1.08028561 C332.26005527 -0.91210692 339.20776216 -0.8300273 346.15679657 -0.75485408 C360.4400448 -0.59842793 374.71987746 -0.33492353 389 0 C388.06911602 1.72563349 387.13586595 3.4499907 386.20166016 5.17382812 C385.42249741 6.61441589 385.42249741 6.61441589 384.62759399 8.08410645 C382.06385035 12.67714599 379.22904401 17.08360251 376.375 21.5 C375.13511462 23.43340008 373.89553659 25.3669973 372.65625 27.30078125 C371.73392578 28.73671631 371.73392578 28.73671631 370.79296875 30.20166016 C368.13415788 34.35134563 365.50296567 38.51823618 362.875 42.6875 C361.88935167 44.25001814 360.90367471 45.81251822 359.91796875 47.375 C359.19359619 48.52355469 359.19359619 48.52355469 358.45458984 49.6953125 C357.00918211 51.98545164 355.56159316 54.27419657 354.11328125 56.5625 C348.5481092 65.35800909 343.01198169 74.17104885 337.5 83 C331.51421661 92.58787459 325.49635422 102.15474523 319.45166016 111.70556641 C316.96526467 115.63545958 314.48287225 119.56788032 312 123.5 C311.00001836 125.08334493 310.00001838 126.66667828 309 128.25 C308.2575 129.425625 308.2575 129.425625 307.5 130.625 C303 137.75 303 137.75 301.50073242 140.1237793 C300.49821757 141.71113526 299.49577646 143.29853779 298.4934082 144.88598633 C296.03248037 148.78315395 293.57038288 152.67957101 291.10546875 156.57421875 C284.18212533 167.51719306 277.29391629 178.48176306 270.453125 189.4765625 C268.40774962 192.76098479 266.34410404 196.03000504 264.234375 199.2734375 C263.84733398 199.87623535 263.46029297 200.4790332 263.06152344 201.10009766 C262.09099391 202.60857018 261.10859663 204.10939014 260.125 205.609375 C258.7861552 208.45442019 259.00891189 209.10480024 260 212 C261.01848494 213.90764914 261.01848494 213.90764914 262.31542969 215.81079102 C262.80352112 216.55434341 263.29161255 217.29789581 263.79449463 218.0639801 C264.33153015 218.86915573 264.86856567 219.67433136 265.421875 220.50390625 C265.98485291 221.35730087 266.54783081 222.2106955 267.12786865 223.08995056 C268.99611455 225.91801771 270.87287494 228.74032003 272.75 231.5625 C274.06734808 233.55189081 275.38440093 235.54147714 276.70117188 237.53125 C286.15470766 251.79770532 295.71197402 265.99350108 305.30480957 280.16653442 C314.47184044 293.71174048 323.52249958 307.32851432 332.5 321 C342.29855408 335.92084621 352.1915622 350.77312151 362.1875 365.5625 C363.09681778 366.90838699 363.09681778 366.90838699 364.02450562 368.28146362 C366.93849728 372.59435993 369.85335865 376.90666771 372.76855469 381.21875 C377.06534998 387.57551242 381.36099526 393.93296635 385.63345337 400.30612183 C386.41036843 401.46346083 387.18895507 402.61967972 387.96932983 403.77468872 C389.01115653 405.31697575 390.04680542 406.8634308 391.08203125 408.41015625 C391.93631714 409.68064819 391.93631714 409.68064819 392.80786133 410.97680664 C394 413 394 413 394 415 C378.99396962 416.03761887 363.98956763 416.80814602 348.95553303 417.27973557 C341.96799012 417.50485257 335.00313926 417.81087822 328.0300293 418.31933594 C284.27230306 421.44734946 284.27230306 421.44734946 272.21251678 413.06176758 C261.1631648 403.12939344 254.53952873 389.49038517 248.45742798 376.17068481 C245.34419416 369.41367585 241.32419609 363.53454661 237 357.5 C235.62364837 355.45492048 234.25314914 353.4058804 232.890625 351.3515625 C232.49016968 350.75152405 232.08971436 350.1514856 231.67712402 349.53326416 C224.04638779 338.0726991 216.4928729 326.56061141 208.921875 315.06054688 C208.31160461 314.13368073 207.70133423 313.20681458 207.0725708 312.25186157 C205.92870047 310.51439201 204.78508517 308.7767545 203.64178467 307.03890991 C202.60695029 305.4668428 201.56999271 303.8961707 200.53063965 302.3270874 C199.45682439 300.69452682 198.39614895 299.05328362 197.34533691 297.40582275 C196.81275269 296.57983582 196.28016846 295.75384888 195.73144531 294.90283203 C195.2545929 294.15373566 194.77774048 293.40463928 194.28643799 292.63284302 C193.86191345 292.09400482 193.43738892 291.55516663 193 291 C192.34 291 191.68 291 191 291 C190.63463135 291.63574951 190.2692627 292.27149902 189.89282227 292.92651367 C180.39607111 309.44177134 170.80697129 325.90042996 161.15722656 342.32666016 C157.95360603 347.78070557 154.75589884 353.23821643 151.55773926 358.69546509 C150.50464428 360.49207673 149.45111932 362.28843553 148.39746094 364.0847168 C145.11209079 369.68621197 141.82953994 375.28930335 138.55670166 380.89813232 C137.03082418 383.51271619 135.50338224 386.12638452 133.97583008 388.73999023 C133.25646579 389.97179589 132.53784622 391.20403684 131.82006836 392.43676758 C130.81690626 394.15951153 129.81082902 395.88055693 128.8046875 397.6015625 C128.23733887 398.57432129 127.66999023 399.54708008 127.08544922 400.54931641 C126.74967361 401.05917587 126.41389801 401.56903534 126.06794739 402.09434509 C124.86959784 404.08110522 124.86959784 404.08110522 124.11308289 406.80909729 C122.54368764 410.64871445 121.32720456 412.46533336 118 415 C109.70066657 417.14995058 100.64719781 416.27245914 92.16015625 416.07421875 C89.59186637 416.05369442 87.02353333 416.0380401 84.45518494 416.02705383 C78.39458652 415.98939775 72.33651601 415.90279071 66.27686828 415.79220945 C59.3750933 415.66901031 52.47321007 415.60871736 45.57060826 415.55355966 C31.37922806 415.43875642 17.18969218 415.2454333 3 415 C4.27982036 411.7356783 5.62829168 408.74217841 7.43359375 405.734375 C7.91183594 404.93572021 8.39007812 404.13706543 8.8828125 403.31420898 C9.39585938 402.46802002 9.90890625 401.62183105 10.4375 400.75 C10.97246094 399.86320557 11.50742188 398.97641113 12.05859375 398.06274414 C16.31563429 391.04402384 20.73274727 384.14069554 25.22265625 377.26953125 C29.73206981 370.36214058 34.10277947 363.36616489 38.49707031 356.38525391 C39.9614961 354.06110836 41.42925869 351.73911211 42.8984375 349.41796875 C48.42012945 340.69271061 53.90990762 331.94832976 59.375 323.1875 C64.77839325 314.52679571 70.23359789 305.90112294 75.72558594 297.29638672 C80.70782066 289.48097914 85.62308306 281.62473033 90.52856445 273.76098633 C95.83739361 265.25233389 101.18495134 256.76876893 106.54833984 248.29443359 C108.02942336 245.95349466 109.50910717 243.61167713 110.98828125 241.26953125 C111.48577881 240.4818335 111.98327637 239.69413574 112.49584961 238.88256836 C113.49062089 237.30685453 114.48493194 235.73085006 115.47875977 234.15454102 C118.09036664 230.01408374 120.71294976 225.88112126 123.3515625 221.7578125 C124.17333984 220.46907227 124.17333984 220.46907227 125.01171875 219.15429688 C126.06039235 217.51018996 127.11230142 215.8681407 128.16796875 214.22851562 C128.64105469 213.48537109 129.11414062 212.74222656 129.6015625 211.9765625 C130.01744629 211.32768066 130.43333008 210.67879883 130.86181641 210.01025391 C131.23741699 209.34687012 131.61301758 208.68348633 132 208 C132.48525146 207.26515381 132.97050293 206.53030762 133.47045898 205.77319336 C134.22010818 201.84729882 132.72753893 200.21937792 130.5453949 197.00071716 C129.99287552 196.22575394 129.44035614 195.45079071 128.87109375 194.65234375 C128.02025963 193.41176964 128.02025963 193.41176964 127.15223694 192.14613342 C125.91531376 190.34686356 124.67000964 188.55333371 123.41748047 186.76489258 C120.72156744 182.91515537 118.06543086 179.03858626 115.40652466 175.16323853 C114.01753993 173.13966206 112.6264532 171.11752696 111.23336792 169.09677124 C104.77999391 159.72633732 98.51190138 150.24044295 92.28128052 140.72097778 C82.14120878 125.23160952 71.87851133 109.83050337 61.5 94.5 C50.26165438 77.8982663 39.17094277 61.20458817 28.1652832 44.44775391 C26.98785338 42.65523375 25.81036421 40.86275258 24.6328125 39.0703125 C24.06537827 38.20652985 23.49794403 37.34274719 22.91331482 36.45278931 C19.36156522 31.05235634 15.78397916 25.67018392 12.1796875 20.3046875 C11.74341537 19.65453674 11.30714325 19.00438599 10.85765076 18.33453369 C8.8856175 15.39718784 6.90874099 12.46331694 4.9230957 9.53515625 C4.26140381 8.55160156 3.59971191 7.56804687 2.91796875 6.5546875 C2.34844482 5.71405762 1.7789209 4.87342773 1.19213867 4.00732422 C0 2 0 2 0 0 Z " fill="#2BA8E0" transform="translate(1532,401)"/>
<path d="M0 0 C105.93 0 211.86 0 321 0 C321 27.06 321 54.12 321 82 C284.7 82 248.4 82 211 82 C211 191.89 211 301.78 211 415 C177.34 415 143.68 415 109 415 C109 305.11 109 195.22 109 82 C73.03 82 37.06 82 0 82 C0 54.94 0 27.88 0 0 Z " fill="#2BA8E0" transform="translate(595,401)"/>
<path d="M0 0 C33.66 0 67.32 0 102 0 C102 136.95 102 273.9 102 415 C68.34 415 34.68 415 0 415 C0 278.05 0 141.1 0 0 Z " fill="#2BA8E0" transform="translate(1380,401)"/>
<path d="M0 0 C33.66 0 67.32 0 102 0 C102 136.95 102 273.9 102 415 C68.34 415 34.68 415 0 415 C0 278.05 0 141.1 0 0 Z " fill="#2BA8E0" transform="translate(0,401)"/>
<path d="M0 0 C33.33 0 66.66 0 101 0 C101 136.95 101 273.9 101 415 C67.67 415 34.34 415 0 415 C0 278.05 0 141.1 0 0 Z " fill="#2BA8E0" transform="translate(2469,401)"/>
<path d="M0 0 C22.3273815 20.34579759 30.62135044 47.4456209 33.71850586 76.6965332 C33.71850586 83.9565332 33.71850586 91.2165332 33.71850586 98.6965332 C-7.86149414 98.6965332 -49.44149414 98.6965332 -92.28149414 98.6965332 C-94.32590615 82.34123715 -94.73810192 71.66448375 -92.28149414 55.6965332 C-69.84149414 55.6965332 -47.40149414 55.6965332 -24.28149414 55.6965332 C-30.61015673 38.39345478 -30.61015673 38.39345478 -44.28149414 27.6965332 C-56.26981501 23.00776771 -67.47936265 23.75859477 -79.28149414 28.6965332 C-82.28882096 30.40166785 -84.77804715 32.31940693 -87.28149414 34.6965332 C-87.82290039 35.20958008 -88.36430664 35.72262695 -88.92211914 36.2512207 C-101.49756976 49.52530747 -101.92951311 68.56702368 -101.56665039 85.73950195 C-101.00704618 100.69428068 -96.64256081 116.46234293 -86.28149414 127.6965332 C-80.83969096 132.02268647 -75.18469508 135.44140576 -68.28149414 136.6965332 C-67.55833008 136.82801758 -66.83516602 136.95950195 -66.09008789 137.0949707 C-54.84988321 138.71875629 -45.01691735 136.29036753 -35.28149414 130.6965332 C-34.54930664 130.34977539 -33.81711914 130.00301758 -33.06274414 129.64575195 C-30.31876636 128.18350064 -29.69664881 125.67151764 -28.50805664 122.88012695 C-27.30420539 120.63987745 -26.25732443 119.31206198 -24.28149414 117.6965332 C-13.21920517 115.9821159 -0.58032008 118.35663083 10.53100586 119.1965332 C12.49516661 119.34149809 14.45935918 119.48603261 16.42358398 119.63012695 C21.18893895 119.98063885 25.9538265 120.33695882 30.71850586 120.6965332 C31.98989801 124.56264647 31.16959096 126.53719053 29.36987305 130.17797852 C29.01054688 130.86472656 28.6512207 131.55147461 28.28100586 132.2590332 C27.91265625 132.97285156 27.54430664 133.68666992 27.16479492 134.42211914 C19.15342734 149.591128 7.8404063 162.41143564 -7.28149414 170.6965332 C-8.23797852 171.22891602 -9.19446289 171.76129883 -10.17993164 172.30981445 C-35.58191832 185.74419848 -67.63936362 187.21722851 -94.96069336 178.92944336 C-106.98160686 174.99851284 -117.94052153 169.28959148 -127.28149414 160.6965332 C-128.11036133 159.95918945 -128.93922852 159.2218457 -129.79321289 158.4621582 C-147.00239205 142.33349412 -157.17536783 117.88905972 -158.45849609 94.46533203 C-159.02566027 63.81361054 -155.44335433 35.59359982 -134.28149414 11.6965332 C-133.44102539 10.7374707 -132.60055664 9.7784082 -131.73461914 8.7902832 C-117.32990969 -6.95849174 -97.35183701 -16.43193334 -76.28149414 -19.3034668 C-75.50161133 -19.41303711 -74.72172852 -19.52260742 -73.91821289 -19.63549805 C-47.85676256 -22.75289641 -20.212986 -17.4670491 0 0 Z " fill="#E8262A" transform="translate(1090.281494140625,72.303466796875)"/>
<path d="M0 0 C20.13 0 40.26 0 61 0 C64.56147036 11.27798948 68.06767401 22.47219968 71.1875 33.86328125 C71.56671947 35.2368885 71.9463048 36.61039479 72.32621765 37.98381042 C73.13384277 40.90538523 73.93958382 43.82746957 74.7437439 46.75 C76.93073947 54.69652481 79.13187028 62.63914366 81.33203125 70.58203125 C81.56066172 71.40780293 81.78929218 72.2335746 82.02485085 73.08436966 C87.5144084 92.90780614 93.09495037 112.70541496 98.6875 132.5 C98.91554321 133.30724644 99.14358643 134.11449287 99.37854004 134.94620132 C100.72037509 139.69617888 100.72037509 139.69617888 102.0628376 144.44597912 C103.13413883 148.23557038 104.20398061 152.02555896 105.27023315 155.8165741 C107.15622271 162.51649906 109.05447105 169.21179514 111.01032162 175.891716 C111.87733899 178.85671252 112.73527826 181.82429888 113.59232521 184.79219055 C113.99699445 186.18390426 114.40614093 187.57432518 114.8201046 188.96330261 C115.38852178 190.87129345 115.94036947 192.78419694 116.49145508 194.69726562 C116.80810623 195.77415649 117.12475739 196.85104736 117.45100403 197.96057129 C119.4373229 208.95750919 110.52354853 222.34915021 104.91015625 231.3515625 C96.15576858 242.91666359 84.92366513 247.45251267 70.95703125 249.68359375 C53.51479138 252.04834779 35.51932913 251.12695166 18 251 C18 236.48 18 221.96 18 207 C21.3825 206.87625 24.765 206.7525 28.25 206.625 C44.09162007 206.79880829 44.09162007 206.79880829 57.59765625 199.96875 C61.68811461 194.22615665 63.96480646 186.99484687 63 180 C59.60956795 167.28089585 54.82008735 154.89880928 50.4375 142.5 C49.58906481 140.09425469 48.74067703 137.68849265 47.89233398 135.28271484 C40.23856957 113.59861849 32.47871584 91.95284121 24.70344543 70.31208801 C20.43188657 58.4219678 16.16775017 46.52919806 11.91279697 34.63312531 C10.78799246 31.48845165 9.66226957 28.34411472 8.53518677 25.20025635 C7.28991299 21.72658409 6.04701065 18.25207217 4.8046875 14.77734375 C4.43273758 13.74144608 4.06078766 12.7055484 3.67756653 11.63825989 C3.33779282 10.68634262 2.9980191 9.73442535 2.64794922 8.75366211 C2.35217987 7.92756943 2.05641052 7.10147675 1.75167847 6.25035095 C1.06616777 4.19809095 0.52477984 2.09911938 0 0 Z " fill="#E8262A" transform="translate(169,58)"/>
<path d="M0 0 C19.14 0 38.28 0 58 0 C58 82.5 58 165 58 250 C38.86 250 19.72 250 0 250 C0 167.5 0 85 0 0 Z " fill="#E8262A" transform="translate(74,0)"/>
<path d="M0 0 C11.81149735 9.26478045 17.77725365 24.811347 19.58932495 39.30204773 C21.24558239 54.5179692 21.2576972 69.66723098 21.1953125 84.95703125 C21.19044252 87.68470653 21.1886316 90.41238167 21.18673706 93.14006042 C21.18058791 99.5248938 21.16426879 105.90965644 21.14403808 112.29445904 C21.11924603 120.29720378 21.10848879 128.29996066 21.09765625 136.30273438 C21.07833086 150.53521096 21.03824218 164.76753383 21 179 C2.19 179 -16.62 179 -36 179 C-36.03738281 170.23695313 -36.07476563 161.47390625 -36.11328125 152.4453125 C-36.14741954 146.17796974 -36.18341239 139.91065908 -36.22207737 133.64334488 C-36.2718798 125.53080157 -36.31734984 117.41831094 -36.34643555 109.30566406 C-36.36948349 102.88099843 -36.40295667 96.45648399 -36.44870156 90.03193843 C-36.47254274 86.63340288 -36.49133085 83.23501621 -36.49761391 79.83639908 C-36.50727255 76.03279796 -36.53535486 72.22973692 -36.56762695 68.42626953 C-36.56619186 67.31208145 -36.56475677 66.19789337 -36.5632782 65.04994202 C-36.67709089 55.53067579 -38.27436264 45.25788204 -45 38 C-52.05946962 32.86816133 -59.76732806 31.50138624 -68.34375 32.1875 C-76.26796491 33.52680393 -83.24616239 37.5781492 -88 44 C-88.66 44 -89.32 44 -90 44 C-90.22317413 37.8621392 -90.38610822 31.72665783 -90.49438477 25.58569336 C-90.53953282 23.49901174 -90.60086991 21.41261311 -90.67895508 19.3269043 C-91.30959228 2.04414764 -91.30959228 2.04414764 -88.17407227 -2.85009766 C-85.84594265 -4.70369313 -83.74380595 -5.87063012 -81 -7 C-79.93394531 -7.62390625 -78.86789062 -8.2478125 -77.76953125 -8.890625 C-51.06663521 -21.16619676 -23.16458145 -17.69263308 0 0 Z " fill="#E8262A" transform="translate(881,71)"/>
<path d="M0 0 C0 14.85 0 29.7 0 45 C-6.435 46.98 -6.435 46.98 -13 49 C-24.55856394 54.77928197 -30.65125827 62.90954222 -35 75 C-41.24885396 93.84694508 -40.39721141 118.60211826 -31.75 136.5 C-26.25396959 146.64651769 -19.80803961 151.81415253 -9 156 C-6.03 156.66 -3.06 157.32 0 158 C0 173.18 0 188.36 0 204 C-25.55974324 204 -49.67079101 196.20091427 -68.09765625 177.99609375 C-88.94393126 156.71791146 -96.58237934 128.02908468 -96.28344727 98.85180664 C-95.61391636 70.30957785 -85.49973039 44.40574619 -64.80078125 24.3828125 C-47.09106071 9.31596518 -23.30868634 0 0 0 Z " fill="#E8262A" transform="translate(593,52)"/>
<path d="M0 0 C17.47820849 1.1652139 17.47820849 1.1652139 24.5625 3.1875 C25.75963623 3.51959473 25.75963623 3.51959473 26.98095703 3.85839844 C39.74199265 7.52486309 50.45915445 12.96278309 61 21 C61.73863281 21.55300781 62.47726562 22.10601562 63.23828125 22.67578125 C81.45922092 37.39128964 90.9002328 61.08727388 94.375 83.625 C97.39415124 112.02966774 92.5970014 142.75415574 75 166 C71.49149137 170.17501863 67.82814726 174.11732073 64 178 C63.28070312 178.7321875 62.56140625 179.464375 61.8203125 180.21875 C45.53046558 195.70947236 22.22165681 204 0 204 C0 188.82 0 173.64 0 158 C5.94 156.02 5.94 156.02 12 154 C23.05068747 147.68532145 30.18274815 139.19128415 33.9375 126.94140625 C39.25695039 106.45640741 39.59411722 81.9313423 29 63 C21.59376649 52.27845047 12.38511036 48.09627759 0 45 C0 30.15 0 15.3 0 0 Z " fill="#E8262A" transform="translate(602,52)"/>
<path d="M0 0 C18.48 0 36.96 0 56 0 C56 63.36 56 126.72 56 192 C37.52 192 19.04 192 0 192 C0 128.64 0 65.28 0 0 Z " fill="#E8262A" transform="translate(727,58)"/>
<path d="M0 0 C18.48 0 36.96 0 56 0 C56 63.36 56 126.72 56 192 C37.52 192 19.04 192 0 192 C0 128.64 0 65.28 0 0 Z " fill="#E8262A" transform="translate(374,58)"/>
<path d="M0 0 C3.64531015 0.76018783 5.24717187 2.53917187 7.37890625 5.49609375 C8.2820695 8.2055835 8.52548125 9.89744709 8.58422852 12.69213867 C8.60417374 13.53278366 8.62411896 14.37342865 8.64466858 15.23954773 C8.66138107 16.1427626 8.67809357 17.04597748 8.6953125 17.9765625 C8.7160936 18.90455154 8.73687469 19.83254059 8.75828552 20.78865051 C8.82367948 23.75355615 8.88261887 26.71855047 8.94140625 29.68359375 C8.98460112 31.69336855 9.02821572 33.70313438 9.07226562 35.71289062 C9.17935052 40.64053407 9.2806467 45.56826674 9.37890625 50.49609375 C9.88172119 50.0386377 10.38453613 49.58118164 10.90258789 49.10986328 C26.0521631 35.55282141 44.10564354 29.1319034 64.37890625 29.49609375 C86.0989027 30.9267522 105.23473357 39.79904395 119.69140625 56.12109375 C133.23259649 73.33932265 138.06906531 92.85839347 136.37890625 114.49609375 C133.90444063 134.86442229 123.59708927 151.13074012 108.37890625 164.49609375 C90.16301141 178.15157361 69.38112084 182.117502 47.02050781 179.18701172 C29.4202765 175.98659808 11.89847254 165.03587646 1.37890625 150.49609375 C-7.85539903 136.02391365 -12.9159441 122.51981491 -12.92749023 105.25073242 C-12.93581375 104.17465729 -12.94413727 103.09858215 -12.95271301 101.98989868 C-12.97663648 98.46458232 -12.98555957 94.93945118 -12.9921875 91.4140625 C-13.00116095 88.95168505 -13.01028292 86.48930814 -13.01954651 84.02693176 C-13.03598645 78.88195472 -13.04372862 73.73704243 -13.04663086 68.59204102 C-13.05203697 61.99658059 -13.08983083 55.40172611 -13.13537502 48.80643749 C-13.16508053 43.72870132 -13.17235287 38.65111303 -13.17335701 33.5732975 C-13.17756527 31.14078278 -13.19002364 28.70826785 -13.21087456 26.27583885 C-13.23767755 22.88159299 -13.23299772 19.48877943 -13.22045898 16.09448242 C-13.23529327 15.09023727 -13.25012756 14.08599213 -13.26541138 13.05131531 C-13.21590121 8.35369645 -13.16254849 6.20574278 -10.23988342 2.37519836 C-6.6117089 -0.2281873 -4.33504423 -0.2131989 0 0 Z M22.37890625 67.49609375 C11.00821625 81.36907151 6.94437323 95.69414938 8.37890625 113.49609375 C11.25744469 128.54584361 19.6515012 141.35311769 32.21484375 150.1875 C45.19730316 158.03790416 59.14494081 160.61752928 74.01953125 157.80859375 C89.73983882 153.33836411 101.59756782 143.74114321 109.75390625 129.6484375 C116.32344815 116.9041579 117.35996446 102.13665779 113.41015625 88.3671875 C108.64775379 75.10822609 99.24980914 63.62439207 86.6796875 57.09375 C63.77269066 46.31214849 41.13387419 50.71273873 22.37890625 67.49609375 Z " fill="#A761FF" transform="translate(2014.62109375,913.50390625)"/>
<path d="M0 0 C0.84304687 -0.03996094 1.68609375 -0.07992187 2.5546875 -0.12109375 C6.45113053 0.72570162 7.71442349 2.26992896 10.125 5.4375 C10.8610765 8.95229033 10.78774024 12.4081894 10.74023438 15.98828125 C10.74578339 17.05077591 10.7513324 18.11327057 10.75704956 19.20796204 C10.76886355 22.72243299 10.74453838 26.23561897 10.71875 29.75 C10.71703831 32.20035748 10.71710517 34.65071678 10.71887207 37.10107422 C10.71721744 42.24252803 10.69850224 47.3835466 10.66699219 52.52490234 C10.62748218 59.08710911 10.62292694 65.64874131 10.63045502 72.21104431 C10.63353981 77.27627745 10.62134789 82.34138363 10.60432434 87.40658569 C10.597332 89.82407839 10.5941652 92.24158548 10.59501648 94.65908813 C10.57924214 124.16069046 10.57924214 124.16069046 3.4375 137.5625 C3.08864746 138.2335376 2.73979492 138.9045752 2.38037109 139.59594727 C-7.41731117 157.98364956 -22.81373559 171.28822016 -42.875 177.4375 C-63.20422146 183.15937046 -84.73991328 179.72690658 -103.0703125 169.77734375 C-109.15612613 166.21936555 -114.01960431 161.49396269 -118.875 156.4375 C-119.55046875 155.75816406 -120.2259375 155.07882812 -120.921875 154.37890625 C-135.19889048 139.18588757 -139.58990338 119.95600985 -139.1796875 99.76171875 C-138.35174811 80.58568448 -129.56171844 62.75169687 -115.875 49.4375 C-99.46798734 34.67569603 -78.89933164 28.58361817 -57.08203125 29.6171875 C-41.40075845 31.23653917 -27.16912535 37.25387233 -15.21704102 47.55664062 C-14.59015884 48.0963147 -13.96327667 48.63598877 -13.31739807 49.1920166 C-12.84140671 49.60302612 -12.36541534 50.01403564 -11.875 50.4375 C-11.86041748 49.19661621 -11.84583496 47.95573242 -11.83081055 46.67724609 C-11.77269277 42.05879379 -11.69546053 37.44082216 -11.61254883 32.82275391 C-11.57936287 30.82673971 -11.55131132 28.83063311 -11.52856445 26.83447266 C-11.49490207 23.9595616 -11.44258023 21.08549257 -11.38671875 18.2109375 C-11.38032883 17.32320648 -11.3739389 16.43547546 -11.36735535 15.52084351 C-11.2479217 10.44994181 -10.7466568 6.79855615 -7.875 2.4375 C-4.72405867 0.33687245 -3.6525634 0.09436714 0 0 Z M-85.875 55.4375 C-86.65875 55.788125 -87.4425 56.13875 -88.25 56.5 C-102.10303466 63.42651733 -110.69920509 75.23773966 -115.9296875 89.45703125 C-120.13750356 102.7238232 -118.43689175 116.68974955 -112.58984375 129.18359375 C-104.49557476 143.63603503 -92.62043588 152.69090183 -76.875 157.4375 C-76.27429687 157.62957031 -75.67359375 157.82164062 -75.0546875 158.01953125 C-61.67673274 160.58483799 -47.69455631 157.94724331 -36.0625 150.9765625 C-22.88183491 141.70302313 -13.87321039 129.44639461 -10.875 113.4375 C-9.16796375 98.41206137 -11.85074748 84.63943325 -21.1875 72.4453125 C-23.29672525 69.93572505 -25.43649382 67.63215556 -27.875 65.4375 C-28.35066406 64.96957031 -28.82632813 64.50164062 -29.31640625 64.01953125 C-40.65815458 53.38835029 -54.23010892 50.81558045 -69.1640625 51.12109375 C-75.20740059 51.40938872 -80.3945361 52.89777283 -85.875 55.4375 Z " fill="#A761FF" transform="translate(2500.875,913.5625)"/>
<path d="M0 0 C14.10753006 7.09550329 23.68377605 18.73342288 28.92578125 33.4765625 C29.92938169 36.89692135 30.81339803 40.31197912 31.61328125 43.78515625 C31.94972656 45.21021484 31.94972656 45.21021484 32.29296875 46.6640625 C32.75789578 48.69891438 33.19038461 50.74115582 33.61328125 52.78515625 C34.25265625 52.12515625 34.89203125 51.46515625 35.55078125 50.78515625 C39.63310205 48.11915083 42.85653658 47.79033619 47.61328125 48.78515625 C50.67911528 50.51247646 53.01555683 52.5897074 54.61328125 55.78515625 C54.98613455 60.25939582 55.05817705 62.81799146 53.17578125 66.91015625 C48.69312943 71.93947292 43.03578247 75.68071999 36.61328125 77.78515625 C33.80078125 77.91015625 33.80078125 77.91015625 31.61328125 77.78515625 C31.59910156 78.41679688 31.58492187 79.0484375 31.5703125 79.69921875 C30.48120045 100.12742847 18.30381641 118.22503386 3.61328125 131.78515625 C-12.81520175 145.77125608 -31.72578533 151.33421776 -52.99414062 150.00390625 C-69.11789313 148.52973459 -84.21893993 141.32220183 -96.38671875 130.78515625 C-97.57587891 129.88990234 -97.57587891 129.88990234 -98.7890625 128.9765625 C-110.7870353 118.8549644 -120.05879659 102.30463729 -122.38671875 86.78515625 C-122.63059485 81.90763435 -122.11334226 78.84206317 -119.32421875 74.78515625 C-115.64355278 72.27917091 -112.82055669 71.48956705 -108.38671875 71.78515625 C-103.4973756 73.44568788 -101.73239674 75.29666971 -99.38671875 79.78515625 C-98.7287394 81.81012127 -98.1273875 83.8540861 -97.57421875 85.91015625 C-93.23884106 100.44352465 -85.40907027 111.00211817 -72.38671875 118.78515625 C-59.08122622 125.78999772 -45.24073522 128.30057789 -30.57421875 124.22265625 C-14.66601621 118.61147095 -4.26562277 107.30215975 3.61328125 92.78515625 C6.50005619 86.55955645 8.09777466 80.6156186 8.61328125 73.78515625 C7.88625 73.40746094 7.15921875 73.02976562 6.41015625 72.640625 C-11.91303882 62.60985026 -23.75991153 47.66557792 -30.38671875 27.78515625 C-31.57893343 11.30914028 -31.57893343 11.30914028 -26.38671875 4.78515625 C-19.15773598 -2.25846798 -9.36012086 -3.357552 0 0 Z M-6.38671875 23.78515625 C-5.82757518 28.25008211 -4.13211909 31.13738995 -1.63671875 34.84765625 C-0.96125 35.86988281 -0.28578125 36.89210938 0.41015625 37.9453125 C2.58125048 40.74386836 4.76158541 42.70621016 7.61328125 44.78515625 C4.90946714 35.56760815 1.15377402 29.75824322 -6.38671875 23.78515625 Z " fill="#A761FF" transform="translate(2295.38671875,943.21484375)"/>
<path d="M0 0 C1.04590805 0.00222061 2.0918161 0.00444122 3.16941833 0.00672913 C4.35056717 0.00680466 5.531716 0.00688019 6.74865723 0.00695801 C8.03404892 0.01211929 9.31944061 0.01728058 10.64378357 0.02259827 C11.95193527 0.02401321 13.26008698 0.02542816 14.60787964 0.02688599 C18.09150591 0.03071042 21.57509071 0.04054005 25.05870056 0.05158997 C28.6111444 0.06180569 32.16359491 0.06638395 35.71604919 0.07142639 C42.69067564 0.0821624 49.66527449 0.09923792 56.63987732 0.12025452 C55.88541239 4.56635231 54.5185049 8.76006152 53.08641052 13.02357483 C52.82589905 13.8070076 52.56538757 14.59044037 52.29698181 15.39761353 C51.4311384 17.99885596 50.56096483 20.59862714 49.69065857 23.19837952 C49.07521953 25.04350068 48.46000482 26.88869667 47.84500122 28.73396301 C46.54630435 32.62848588 45.24559458 36.52232864 43.94334412 40.41566467 C42.3191695 45.27162342 40.69871346 50.12881135 39.07968044 54.98648643 C32.25551409 75.45830699 25.36696475 95.90649937 18.37193298 116.32058334 C14.74093939 126.91956085 11.15261905 137.52968038 7.65940857 148.17494202 C7.29948318 149.26967834 6.9395578 150.36441467 6.56872559 151.49232483 C5.16059258 155.77869203 3.75440164 160.06561649 2.3603363 164.35658264 C1.30143903 167.61124888 0.23144219 170.86208321 -0.84059143 174.11244202 C-1.15304306 175.08390167 -1.46549469 176.05536133 -1.78741455 177.05625916 C-2.08235306 177.94475555 -2.37729156 178.83325195 -2.6811676 179.74867249 C-2.93428207 180.52435577 -3.18739655 181.30003906 -3.44818115 182.09922791 C-4.43741963 184.29155847 -5.56573029 185.54232284 -7.36012268 187.12025452 C-11.98040954 172.50369312 -16.28431128 157.80654628 -20.48268127 143.06385803 C-21.31975665 140.12802728 -22.16593937 137.19504804 -23.01979065 134.26405334 C-24.06462651 130.67703692 -25.09312939 127.08570449 -26.11041641 123.49078178 C-26.49629651 122.13732347 -26.88774654 120.78543894 -27.28515244 119.4353199 C-27.83915657 117.54905701 -28.37030444 115.65612772 -28.90065002 113.76307678 C-29.20755768 112.69436844 -29.51446533 111.6256601 -29.83067322 110.52456665 C-31.02078795 102.87223664 -28.88112433 95.56819592 -26.87574768 88.21009827 C-26.62361511 87.26429398 -26.37148254 86.31848969 -26.11170959 85.34402466 C-25.28426422 82.24684106 -24.44741819 79.15228839 -23.61012268 76.05775452 C-23.03054357 73.89837743 -22.45144928 71.73887015 -21.87281799 69.57923889 C-20.66303724 65.06950179 -19.44884445 60.56098452 -18.23121643 56.05335999 C-16.66734604 50.26334039 -15.11237591 44.47097706 -13.56037903 38.67776489 C-12.36727051 34.22654777 -11.17063558 29.77628516 -9.97279358 25.32633972 C-9.39780679 23.1894221 -8.82366895 21.05227587 -8.25038147 18.91490173 C-7.4518488 15.94074827 -6.64885123 12.9678382 -5.84449768 9.99525452 C-5.6065448 9.10596756 -5.36859192 8.2166806 -5.12342834 7.30044556 C-3.18304297 0.16218449 -3.18304297 0.16218449 0 0 Z " fill="#E8262A" transform="translate(298.36012268066406,57.87974548339844)"/>
<path d="M0 0 C6.90418489 4.55936738 11.06021505 11.71965205 12.71875 19.7890625 C14.57856045 34.40923908 11.19357308 47.78723103 3 60 C-4.0037998 68.94235153 -14.46294503 76.4664811 -26 78 C-36.16589706 78.71607358 -46.16054117 78.773451 -54.41796875 72.0234375 C-59.42564655 67.1487069 -59.42564655 67.1487069 -61 64 C-62.51894369 69.78965104 -63.69548544 75.56067673 -64.69140625 81.4609375 C-64.841577 82.33271637 -64.99174774 83.20449524 -65.14646912 84.10269165 C-65.78340981 87.80060084 -66.4133365 91.49969554 -67.04370117 95.19873047 C-67.50704928 97.91157798 -67.97411314 100.62376722 -68.44140625 103.3359375 C-68.58308731 104.17546967 -68.72476837 105.01500183 -68.8707428 105.87997437 C-69.88714164 111.77428329 -69.88714164 111.77428329 -71 114 C-74.63 114 -78.26 114 -82 114 C-81.3252038 107.29149207 -80.32410355 100.70070198 -79.14233398 94.06420898 C-78.95687012 93.00950912 -78.77140625 91.95480927 -78.58032227 90.8681488 C-77.97159641 87.41031789 -77.35887477 83.95320812 -76.74609375 80.49609375 C-76.3212908 78.08761383 -75.89673902 75.67908959 -75.47242737 73.27052307 C-74.35867608 66.95234498 -73.24152672 60.63477236 -72.12365723 54.31732178 C-70.98206914 47.86230224 -69.84371157 41.40671313 -68.70507812 34.95117188 C-66.47320494 22.30022322 -64.23773977 9.64991217 -62 -3 C-58.04 -3 -54.08 -3 -50 -3 C-50.33 0.96 -50.66 4.92 -51 9 C-49.88625 7.948125 -48.7725 6.89625 -47.625 5.8125 C-35.29181359 -5.00646957 -14.56740325 -8.92840844 0 0 Z M-46.234375 14.97265625 C-54.57123187 23.60725801 -58.38726706 34.56070049 -58.2109375 46.4453125 C-57.60965743 53.72748223 -54.22186457 59.02867944 -49 64 C-42.26223571 68.81268878 -35.04412498 68.63237052 -27 68 C-17.35294366 65.95155762 -9.51248985 59.10694609 -4.0625 51.0625 C1.21108684 41.5251621 3.11531996 30.14650009 0.34375 19.47265625 C-2.23614426 13.67901439 -6.87917535 9.77127886 -12.3125 6.6875 C-25.41417741 3.3359081 -36.05587467 5.98639284 -46.234375 14.97265625 Z " fill="#A761FF" transform="translate(1132,962)"/>
<path d="M0 0 C22.11 0 44.22 0 67 0 C67 15.51 67 31.02 67 47 C44.89 47 22.78 47 0 47 C0 31.49 0 15.98 0 0 Z " fill="#E8262A" transform="translate(140,0)"/>
<path d="M0 0 C22.11 0 44.22 0 67 0 C67 15.51 67 31.02 67 47 C44.89 47 22.78 47 0 47 C0 31.49 0 15.98 0 0 Z " fill="#E8262A" transform="translate(0,0)"/>
<path d="M0 0 C3.96 0 7.92 0 12 0 C8.22364448 23.2543998 4.19204386 46.46231532 0.09962463 69.66279602 C-0.3130201 72.00294953 -0.72510956 74.34320026 -1.13708496 76.68347168 C-1.7947721 80.41850785 -2.45412872 84.15324559 -3.11483574 87.88774872 C-3.36190414 89.28519638 -3.60853003 90.68272236 -3.85469246 92.0803299 C-4.19512378 94.01213033 -4.53757772 95.94357399 -4.88012695 97.875 C-5.16941826 99.51082031 -5.16941826 99.51082031 -5.46455383 101.1796875 C-5.8992124 103.46912957 -6.43481013 105.73924051 -7 108 C-10.63 108 -14.26 108 -18 108 C-17.67 103.71 -17.34 99.42 -17 95 C-18.258125 96.216875 -19.51625 97.43375 -20.8125 98.6875 C-30.37511803 107.20774734 -40.60713641 109.52360097 -53.1328125 109.27734375 C-60.71596135 108.73350176 -67.86926756 106.28170244 -73.43359375 100.9453125 C-80.54881333 92.10895501 -82.5528918 82.86440928 -81.7734375 71.77734375 C-80.13524555 58.3024119 -74.60516938 45.86657933 -64.42578125 36.67578125 C-52.51621849 27.48452097 -40.72469084 25.41926622 -26 27 C-18.07053424 28.77965433 -12.59294997 34.40705003 -7 40 C-4.69 26.8 -2.38 13.6 0 0 Z M-59 46 C-64.01284123 51.72220555 -67.15355515 57.64376372 -69 65 C-69.226875 65.804375 -69.45375 66.60875 -69.6875 67.4375 C-70.71926941 75.89800917 -70.41189274 82.99047494 -65.5234375 90.16796875 C-61.68435187 94.97997334 -58.12513238 97.92339823 -52 99 C-42.49203995 100.05200118 -34.13314759 98.666534 -26.265625 93.046875 C-20.73903874 88.37053278 -16.86231806 83.64383582 -14 77 C-13.52433594 75.97326172 -13.52433594 75.97326172 -13.0390625 74.92578125 C-10.02542934 67.44699437 -9.59989466 58.82906704 -11.84375 51.08984375 C-14.50500907 45.12898307 -18.16341438 40.98082765 -24 38 C-36.56098276 33.74414071 -49.34224839 37.09414947 -59 46 Z " fill="#A761FF" transform="translate(1682,931)"/>
<path d="M0 0 C1.51400391 0.01740234 1.51400391 0.01740234 3.05859375 0.03515625 C4.07050781 0.04417969 5.08242187 0.05320312 6.125 0.0625 C7.29869141 0.07990234 7.29869141 0.07990234 8.49609375 0.09765625 C8.31433594 1.20278564 8.13257813 2.30791504 7.9453125 3.4465332 C7.27201085 7.54428613 6.60184003 11.64254594 5.93261719 15.7409668 C5.64245704 17.51519546 5.35144641 19.28928524 5.05957031 21.06323242 C4.64034277 23.61210736 4.22416973 26.16146499 3.80859375 28.7109375 C3.67735107 29.50478348 3.5461084 30.29862946 3.41088867 31.11653137 C2.91959603 34.14524258 2.49609375 37.02367604 2.49609375 40.09765625 C2.94597656 39.65035156 3.39585938 39.20304688 3.859375 38.7421875 C14.2403435 28.98532532 24.98207637 26.60909972 38.734375 26.8203125 C46.67838165 27.13187257 53.12423856 29.83506384 58.9609375 35.2578125 C66.56785431 44.37449906 67.14709755 54.70508977 66.49609375 66.09765625 C64.60993014 79.02906606 58.74787289 91.58707821 48.3671875 99.77734375 C36.95809368 107.75378847 26.30124026 110.06080601 12.49609375 109.09765625 C4.20390216 107.48042137 -1.22534791 103.61822831 -6.50390625 97.09765625 C-6.83390625 96.43765625 -7.16390625 95.77765625 -7.50390625 95.09765625 C-8.49390625 99.38765625 -9.48390625 103.67765625 -10.50390625 108.09765625 C-14.13390625 108.09765625 -17.76390625 108.09765625 -21.50390625 108.09765625 C-20.92637463 100.99852619 -20.10395697 94.05995747 -18.84570312 87.05224609 C-18.68135269 86.11590332 -18.51700226 85.17956055 -18.34767151 84.21484375 C-17.81054925 81.16193709 -17.26683466 78.11024989 -16.72265625 75.05859375 C-16.34505072 72.92441789 -15.96773601 70.79019055 -15.59069824 68.65591431 C-14.80348516 64.20579034 -14.01303974 59.75625641 -13.22021484 55.30712891 C-12.20212993 49.59259138 -11.19180825 43.87671334 -10.18379974 38.16039085 C-9.40780443 33.76429468 -8.62797639 29.36888533 -7.84693909 24.9736824 C-7.47259993 22.86465285 -7.09941957 20.75541728 -6.72740173 18.64597702 C-6.20951031 15.71298663 -5.68652939 12.78095016 -5.16210938 9.84912109 C-5.00831314 8.97232697 -4.85451691 8.09553284 -4.69606018 7.19216919 C-3.42383739 0.133535 -3.42383739 0.133535 0 0 Z M6.78515625 46.69140625 C-0.79426332 54.84793898 -5.12691588 65.91022434 -4.75 77.0625 C-3.87323981 84.31316763 -1.11144456 90.34049188 4.49609375 95.09765625 C11.24922259 99.70888362 18.54484417 100.03594239 26.49609375 99.09765625 C36.27655893 96.76963003 43.46033477 90.39676566 49.1796875 82.32421875 C54.18077876 73.8653997 56.61457343 64.0771684 54.80859375 54.34765625 C53.07988437 47.84496136 49.31677604 42.57526728 43.49609375 39.09765625 C30.08603165 33.79304308 17.26397984 36.93031031 6.78515625 46.69140625 Z " fill="#A761FF" transform="translate(1761.50390625,930.90234375)"/>
<path d="M0 0 C3.96 0 7.92 0 12 0 C12.20681396 1.83216064 12.41362793 3.66432129 12.62670898 5.55200195 C13.31054251 11.60324083 13.99737089 17.65413388 14.68624783 23.70480061 C15.10383056 27.37356491 15.52020722 31.04245777 15.93383789 34.71166992 C16.33300642 38.25219489 16.73532953 41.79234837 17.13984871 45.33226585 C17.29367704 46.68333353 17.4463654 48.0345315 17.59789848 49.38585854 C17.81021908 51.27751768 18.02695769 53.16867937 18.24389648 55.05981445 C18.36603012 56.13681107 18.48816376 57.21380768 18.61399841 58.32344055 C18.93270351 61.09407007 18.93270351 61.09407007 20 64 C30.56 42.88 41.12 21.76 52 0 C55.96 0 59.92 0 64 0 C64.34780518 2.37517822 64.34780518 2.37517822 64.70263672 4.79833984 C65.5685074 10.7066039 66.43780437 16.61435972 67.30810547 22.52197266 C67.68338097 25.07261776 68.05774318 27.62339741 68.43115234 30.17431641 C68.9698926 33.8535532 69.51198047 37.532284 70.0546875 41.2109375 C70.21935516 42.34050873 70.38402283 43.47007996 70.55368042 44.63388062 C71.51638248 51.13370997 72.63481321 57.57227846 74 64 C76.95974536 57.62565466 79.91781405 51.25053309 82.875 44.875 C83.30907166 43.93938232 83.74314331 43.00376465 84.19036865 42.03979492 C89.62248211 30.32867039 95.04404543 18.61418747 100.31982422 6.83154297 C102.89703172 1.10296828 102.89703172 1.10296828 104 0 C105.85287502 -0.07226502 107.70833878 -0.0838122 109.5625 -0.0625 C110.57441406 -0.05347656 111.58632812 -0.04445313 112.62890625 -0.03515625 C113.41136719 -0.02355469 114.19382812 -0.01195312 115 0 C113.34336967 5.61756141 110.82100563 10.68882901 108.23046875 15.91796875 C107.75729218 16.88099915 107.2841156 17.84402954 106.79660034 18.83624268 C105.26354757 21.95497124 103.72547474 25.0711962 102.1875 28.1875 C100.09473473 32.44191295 98.00452524 36.69758031 95.9140625 40.953125 C95.4010408 41.99653549 94.8880191 43.03994598 94.35945129 44.11497498 C90.22054841 52.53679501 86.12382614 60.97803171 82.0625 69.4375 C81.53229248 70.54182373 81.00208496 71.64614746 80.45581055 72.78393555 C79.30251261 75.18863806 78.15098841 77.5941912 77 80 C73.04 80 69.08 80 65 80 C64.7326001 78.30472168 64.4652002 76.60944336 64.18969727 74.86279297 C63.30382911 69.24690866 62.41772036 63.63106236 61.53144932 58.01524162 C60.99438061 54.6120707 60.45740697 51.20888484 59.9206543 47.80566406 C59.3028586 43.88862657 58.68464275 39.97165544 58.06640625 36.0546875 C57.87470352 34.83884979 57.68300079 33.62301208 57.48548889 32.37033081 C57.21532204 30.6592363 57.21532204 30.6592363 56.93969727 28.91357422 C56.70320213 27.41466141 56.70320213 27.41466141 56.46192932 25.88546753 C55.98742143 22.92142724 55.49662973 19.96040711 55 17 C52.2681472 22.29028391 49.53949805 27.58221207 46.8125 32.875 C46.40660645 33.66244598 46.00071289 34.44989197 45.58251953 35.26119995 C41.33775803 43.49990186 37.10437922 51.74296752 32.98046875 60.04296875 C32.67881302 60.64981506 32.37715729 61.25666138 32.06636047 61.88189697 C30.66620581 64.70236283 29.27269031 67.52592157 27.88598633 70.35302734 C27.39767334 71.34125488 26.90936035 72.32948242 26.40625 73.34765625 C25.98666016 74.20367432 25.56707031 75.05969238 25.13476562 75.94165039 C24 78 24 78 22 80 C19.3984375 80.1953125 19.3984375 80.1953125 16.375 80.125 C15.37210938 80.10695313 14.36921875 80.08890625 13.3359375 80.0703125 C12.56507812 80.04710937 11.79421875 80.02390625 11 80 C8.15627278 62.39008675 5.68050769 44.73342955 3.25 27.0625 C3.08966278 25.9015683 2.92932556 24.7406366 2.76412964 23.54452515 C2.30392521 20.2083888 1.84672285 16.87185624 1.390625 13.53515625 C1.25018265 12.51743134 1.1097403 11.49970642 0.96504211 10.45114136 C0.83768173 9.51343903 0.71032135 8.57573669 0.57910156 7.60961914 C0.46681213 6.78869278 0.35452271 5.96776642 0.23883057 5.1219635 C0 3 0 3 0 0 Z " fill="#A761FF" transform="translate(1252,959)"/>
<path d="M0 0 C0.79140381 -0.01401855 1.58280762 -0.02803711 2.39819336 -0.04248047 C11.83353691 0.03379239 18.64311662 2.68877477 25.48828125 9.1875 C30.96973578 15.33903213 32.57135707 22.01418936 32.625 30.125 C32.63917969 31.08921875 32.65335938 32.0534375 32.66796875 33.046875 C32.37947023 37.21298929 31.34342143 41.29835358 30.4375 45.375 C8.6575 45.375 -13.1225 45.375 -35.5625 45.375 C-35.5625 52.93680933 -34.70977541 58.71667893 -30.875 65.25 C-25.34672934 70.3300325 -19.03821209 72.48657779 -11.5625 72.375 C-1.46848339 71.35460952 5.53046026 68.1065528 11.9921875 60.27734375 C13.20047672 58.68697388 14.32959287 57.03686069 15.4375 55.375 C18.2578125 55.08203125 18.2578125 55.08203125 21.5625 55.1875 C23.20605469 55.22810547 23.20605469 55.22810547 24.8828125 55.26953125 C26.14738281 55.32173828 26.14738281 55.32173828 27.4375 55.375 C23.15594422 66.5409957 14.54359625 74.73070705 3.75 79.6875 C-5.79114418 83.82141439 -18.74518229 84.05496472 -28.625 80.8125 C-36.94397389 77.18951744 -41.9738966 71.95808678 -45.6640625 63.7109375 C-46.7675459 60.84188066 -47.37395497 58.4545689 -47.5625 55.375 C-47.624375 54.63378906 -47.68625 53.89257812 -47.75 53.12890625 C-48.46809359 38.02650043 -43.26683896 25.11888385 -33.8125 13.625 C-24.46537037 3.56706203 -13.34801756 0.16260758 0 0 Z M-26.3515625 20.296875 C-30.06218727 25.01284146 -33.5625 30.21210696 -33.5625 36.375 C-15.7425 36.375 2.0775 36.375 20.4375 36.375 C21.53922554 28.6629212 21.29605737 24.82660654 17.6875 18.125 C13.22593872 12.67198065 8.22024043 10.45015064 1.4375 9.375 C-8.99250874 8.40925845 -19.2427993 12.66038702 -26.3515625 20.296875 Z " fill="#A761FF" transform="translate(1557.5625,957.625)"/>
<path d="M0 0 C0.83909912 -0.02247803 1.67819824 -0.04495605 2.54272461 -0.06811523 C11.64351732 -0.03334876 18.58966738 3.37065803 25.2109375 9.50390625 C30.6282465 15.57080208 32.08167401 22.25017863 32.125 30.1875 C32.13917969 31.35796875 32.15335938 32.5284375 32.16796875 33.734375 C31.9375 37.4375 31.9375 37.4375 29.9375 45.4375 C8.1575 45.4375 -13.6225 45.4375 -36.0625 45.4375 C-35.59116683 57.57479442 -35.59116683 57.57479442 -29.40625 66.96484375 C-22.5865058 71.7861793 -14.61249256 73.04655494 -6.4375 71.9375 C3.42140425 69.74037277 9.50612921 63.58455618 14.9375 55.4375 C17.7578125 55.14453125 17.7578125 55.14453125 21.0625 55.25 C22.70605469 55.29060547 22.70605469 55.29060547 24.3828125 55.33203125 C25.64738281 55.38423828 25.64738281 55.38423828 26.9375 55.4375 C24.79840794 64.70689894 17.76083723 71.52726723 9.9375 76.4375 C-1.27924 83.06259204 -14.83874478 84.58489569 -27.5 81.375 C-35.41710126 78.50938254 -41.44296159 73.38064297 -45.12890625 65.8046875 C-49.70042944 54.21329397 -48.55335452 41.80462723 -44.29296875 30.25390625 C-42.2959779 25.68301609 -39.89759056 21.53659819 -37.0625 17.4375 C-36.62292969 16.80070313 -36.18335938 16.16390625 -35.73046875 15.5078125 C-26.77739002 3.89719167 -13.95667322 0.24377911 0 0 Z M-29.49609375 24.1796875 C-32.1892291 27.98756386 -34.0625 31.75567685 -34.0625 36.4375 C-16.2425 36.4375 1.5775 36.4375 19.9375 36.4375 C22.08879144 32.13491712 21.10779923 27.35240581 19.875 22.875 C17.77488452 17.14119634 14.20430579 13.96123981 8.7265625 11.40625 C-6.22597363 5.89473497 -19.82610524 12.42814834 -29.49609375 24.1796875 Z " fill="#A761FF" transform="translate(1415.0625,957.5625)"/>
<path d="M0 0 C6.2402498 4.74629169 10.17941814 11.86242142 11.75 19.50390625 C13.46971338 33.02276417 10.97945698 46.50624983 3.03125 57.71484375 C-4.85487547 67.24710221 -15.24860916 75.37808018 -27.96875 76.71484375 C-39.55785894 77.50641576 -49.94451967 77.09953456 -59.34375 69.46484375 C-67.08461223 62.02536755 -69.97763102 54.07885724 -70.28125 43.46484375 C-70.01918719 29.29707304 -65.2248603 17.31239541 -55.48828125 7.04296875 C-40.98553458 -6.35801887 -17.21290754 -11.23620353 0 0 Z M-49.21875 15.90234375 C-57.5450072 26.29277056 -58.85850613 37.92777711 -57.96875 50.71484375 C-56.40074059 57.04355643 -52.23027479 61.09156645 -46.96875 64.71484375 C-39.56852929 68.69957798 -31.75686121 68.02151363 -23.96875 65.71484375 C-12.86606291 61.42337959 -7.20679293 53.93724394 -1.859375 43.5625 C1.32640641 35.7332919 1.32209677 25.79347826 -0.7421875 17.671875 C-3.59964738 10.9740701 -8.35658142 7.51468388 -14.96875 4.71484375 C-27.98551566 1.54334479 -40.18531313 6.29279484 -49.21875 15.90234375 Z " fill="#A761FF" transform="translate(1225.96875,963.28515625)"/>
<path d="M0 0 C0 16.83 0 33.66 0 51 C-7.92 51 -15.84 51 -24 51 C-32.7201128 52.88935777 -38.3308165 55.25070388 -45 61 C-45.99 61.66 -46.98 62.32 -48 63 C-48.1269815 56.13171166 -48.21442746 49.26372702 -48.2746582 42.39453125 C-48.29977181 40.0588042 -48.33386928 37.72315549 -48.37719727 35.38769531 C-48.43798492 32.02649586 -48.46624212 28.66633715 -48.48828125 25.3046875 C-48.51408768 24.26384003 -48.5398941 23.22299255 -48.56648254 22.15060425 C-48.56960703 14.03801911 -48.56960703 14.03801911 -45.66723633 10.42138672 C-35.88344452 1.53940529 -12.96898445 -6.48449222 0 0 Z " fill="#E8262A" transform="translate(487,55)"/>
<path d="M0 0 C4.29 0 8.58 0 13 0 C17.62 20.79 22.24 41.58 27 63 C29.92204678 60.07795322 31.41674569 57.7030962 33.37109375 54.1015625 C33.68962814 53.51867966 34.00816254 52.93579681 34.33634949 52.33525085 C35.01958342 51.0840431 35.70054918 49.8315946 36.37945557 48.57803345 C38.16521291 45.28172214 39.96837969 41.99494816 41.76953125 38.70703125 C42.12932068 38.04924179 42.48911011 37.39145233 42.85980225 36.71372986 C46.0551373 30.87906762 49.31891631 25.08516305 52.625 19.3125 C53.08447021 18.50828613 53.54394043 17.70407227 54.01733398 16.87548828 C54.89079327 15.35360735 55.77226577 13.83629078 56.66259766 12.32421875 C57.62849664 10.64562103 58.55004428 8.94123457 59.44287109 7.22265625 C63.21762162 0.23794963 63.21762162 0.23794963 67.2109375 -0.9765625 C68.77714844 -0.80253906 68.77714844 -0.80253906 70.375 -0.625 C71.43460938 -0.53476562 72.49421875 -0.44453125 73.5859375 -0.3515625 C74.38257813 -0.23554687 75.17921875 -0.11953125 76 0 C71.71079321 8.96188571 67.00790206 17.54505441 61.921875 26.07421875 C58.46974611 31.86817777 55.11276841 37.71637703 51.75 43.5625 C46.29459035 53.03667315 40.80544528 62.49025725 35.28808594 71.9284668 C32.17758049 77.25390914 29.07940469 82.5861995 26 87.9296875 C25.66508545 88.51083313 25.3301709 89.09197876 24.98510742 89.69073486 C23.37126114 92.49211183 21.75903111 95.29440788 20.1484375 98.09765625 C18.98971689 100.11137995 17.82414455 102.12118075 16.65087891 104.12646484 C15.5469876 106.0479083 14.48138448 107.99184195 13.45458984 109.95556641 C9.77392146 116.76462243 9.77392146 116.76462243 5.7890625 117.9765625 C4.22285156 117.80253906 4.22285156 117.80253906 2.625 117.625 C1.56539062 117.53476563 0.50578125 117.44453125 -0.5859375 117.3515625 C-1.78089844 117.17753906 -1.78089844 117.17753906 -3 117 C-1.38422964 110.81657113 1.96661979 105.72236471 5.25 100.3125 C6.38211883 98.43474428 7.51233068 96.5558375 8.640625 94.67578125 C9.14110352 93.84989502 9.64158203 93.02400879 10.15722656 92.1730957 C10.7653418 91.12597412 11.37345703 90.07885254 12 89 C12.54898956 88.27916733 13.09797913 87.55833466 13.66360474 86.81565857 C17.08757434 81.80676031 18.47274048 78.11032247 17.48400307 71.99763107 C16.67116371 68.08475026 15.67575231 64.23227159 14.6484375 60.37109375 C14.23266159 58.68856219 13.82058012 57.00511379 13.41201782 55.32081604 C12.33307271 50.91448263 11.20610266 46.52189081 10.06787109 42.1305542 C8.91396282 37.64553879 7.80398097 33.14971031 6.69140625 28.65429688 C5.44108655 23.60982374 4.18631076 18.56684188 2.89828491 13.53184509 C2.70374725 12.76981781 2.50920959 12.00779053 2.30877686 11.22267151 C1.94424061 9.79781846 1.57774426 8.37346492 1.20895386 6.94970703 C0 2.22091063 0 2.22091063 0 0 Z " fill="#A761FF" transform="translate(1842,959)"/>
<path d="M0 0 C-0.66 3.96 -1.32 7.92 -2 12 C-2.89460938 12.07476563 -3.78921875 12.14953125 -4.7109375 12.2265625 C-13.01975997 13.13008051 -19.64378941 14.35950213 -26 20 C-33.88288967 30.42662022 -34.7248878 44.71820038 -36.8125 57.1875 C-37.39926469 60.5925606 -37.99126664 63.99664928 -38.58659363 67.40022278 C-38.95331811 69.50698547 -39.31410428 71.61479205 -39.66841125 73.72367859 C-39.82915634 74.6658876 -39.98990143 75.60809662 -40.15551758 76.57885742 C-40.29508377 77.41092209 -40.43464996 78.24298676 -40.57844543 79.1002655 C-41 81 -41 81 -42 82 C-45.66655195 82.14300125 -49.33144219 82.04216733 -53 82 C-51.68349193 72.36118721 -50.144659 62.78775958 -48.43359375 53.2109375 C-48.19206021 51.85050331 -47.9506951 50.49003921 -47.70948792 49.12954712 C-47.2092424 46.31087332 -46.7074269 43.49248544 -46.2043457 40.67431641 C-45.56067274 37.0681869 -44.92038925 33.46146549 -44.28117275 29.85454369 C-43.7855542 27.05938357 -43.28851204 24.26447815 -42.79100227 21.46965408 C-42.43974983 19.49553604 -42.08942685 17.52125269 -41.73912048 15.54696655 C-41.52542313 14.35116974 -41.31172577 13.15537292 -41.09155273 11.92333984 C-40.90439194 10.87302582 -40.71723114 9.82271179 -40.5243988 8.74057007 C-40.09146744 6.47801963 -39.5587046 4.23481839 -39 2 C-35.37 2 -31.74 2 -28 2 C-28 5.3 -28 8.6 -28 12 C-26.865625 10.9275 -25.73125 9.855 -24.5625 8.75 C-17.15647533 2.26316279 -9.73999439 0 0 0 Z M-30 13 C-29 15 -29 15 -29 15 Z " fill="#A761FF" transform="translate(1509,957)"/>
<path d="M0 0 C4.34757007 3.6398261 7.36207363 6.89970889 7.92578125 12.703125 C8.13566047 20.61225767 6.99638838 24.64915088 1.5625 30.5625 C-3.2400064 33.38136245 -8.1393918 34.60600726 -13.71484375 33.98046875 C-19.92453462 32.33516604 -23.86645224 28.59342524 -27.3125 23.25 C-28.9612472 18.2270725 -28.76645476 13.63575662 -27.125 8.625 C-24.08279846 2.96021092 -20.56176846 -0.30448683 -14.4921875 -2.30859375 C-9.15064787 -3.39030339 -4.77212367 -2.52112194 0 0 Z " fill="#FFD877" transform="translate(2192.3125,965.75)"/>
</svg>
